<svg width="123" height="24" viewBox="0 0 123 24" fill="none" xmlns="http://www.w3.org/2000/svg" class="" style="">
<path d="M19.2142 18.3018V18.2581H19.2029V10.4509C19.2029 9.12245 18.8741 7.97016 18.1938 7.14625C17.5089 6.31681 16.4869 5.8436 15.155 5.8436C13.8233 5.8436 12.8008 6.31393 12.1156 7.15101C11.4353 7.98217 11.107 9.15092 11.107 10.5163V18.28H9.69018V10.4945C9.69018 9.12679 9.34382 7.96863 8.65445 7.14896C7.96107 6.32451 6.93973 5.86541 5.6422 5.86541C4.34389 5.86541 3.32272 6.33051 2.62973 7.15741C1.94074 7.97952 1.59422 9.13736 1.59422 10.4945V18.28H0.2V5.0436H1.61679V6.41451V7.09224L1.98475 6.52309C2.78589 5.28389 4.16974 4.69451 5.66477 4.69451C7.65243 4.69451 9.26641 5.57745 10.2438 7.21518L10.4058 7.48673L10.5817 7.22393C11.6658 5.60429 13.1749 4.69451 15.1662 4.69451C16.9324 4.69451 18.2931 5.32387 19.2137 6.32997C20.1365 7.33853 20.631 8.74126 20.631 10.3091V18.3018H19.2142Z" stroke="black" stroke-width="0.4" class="xlSiSWHq_0"></path>
<path d="M36.9308 7.21084V5.02175H38.3475V18.2581H36.9308V16.069V15.869H36.7308H36.6856H36.5804L36.5208 15.9557C35.3997 17.5866 33.4222 18.5854 31.1901 18.5854C27.0683 18.5854 23.807 15.5652 23.807 11.5963C23.807 7.63134 27.1656 4.67266 31.1901 4.67266C33.4787 4.67266 35.4209 5.67124 36.5191 7.32164L36.5785 7.41084H36.6856H36.7308H36.9308V7.21084ZM37.0662 11.4399H37.0289C36.9234 8.375 34.4022 5.82175 31.1563 5.82175C27.8469 5.82175 25.2125 8.29456 25.2125 11.6617C25.2125 15.033 27.7609 17.3927 31.2014 17.3927C34.4569 17.3927 37.0662 14.8191 37.0662 11.6399V11.4399Z" stroke="black" stroke-width="0.4" class="xlSiSWHq_1"></path>
<path d="M55.4797 14.6109C54.7972 15.8468 53.933 16.8135 52.88 17.4836C51.7521 18.2012 50.3967 18.5855 48.7938 18.5855C44.6946 18.5855 41.4106 15.6417 41.4106 11.4982C41.4106 7.87776 44.7065 4.65093 48.7938 4.65093C51.7207 4.65093 54.305 6.16912 55.4949 8.72366H53.9314C52.8237 6.82506 50.9125 5.82184 48.8276 5.82184C45.4765 5.82184 42.7936 8.36777 42.7936 11.5746C42.7936 14.7776 45.4388 17.3927 48.8276 17.3927C50.9823 17.3927 52.8651 16.4589 53.9321 14.6109H55.4797Z" stroke="black" stroke-width="0.4" class="xlSiSWHq_2"></path>
<path d="M58.5742 18.2582V0.2H62.4623V18.2582H58.5742Z" stroke="black" stroke-width="0.4" class="xlSiSWHq_3"></path>
<path d="M91.4856 11.3844L91.4632 11.4276V11.4763C91.4632 15.7075 88.1676 18.6836 83.956 18.6836C82.511 18.6836 81.2132 18.3428 80.0815 17.7272C79.938 17.6442 79.9062 17.4839 80.0111 17.3562C80.7046 16.5844 81.2238 15.702 81.5925 14.7224C81.6468 14.5837 81.8211 14.5111 81.9806 14.5939C82.5419 14.9612 83.2316 15.1781 83.9673 15.1781C86.0982 15.1781 87.5864 13.4181 87.5864 11.4872C87.5864 9.55283 86.0724 7.81811 83.9447 7.81811C83.0005 7.81811 82.1264 8.18799 81.4798 8.83555C80.7905 9.50256 80.3481 10.4254 80.3481 11.4654V11.509C80.3481 13.5595 79.5469 15.2969 78.2538 16.547L78.2537 16.547L78.2492 16.5516C77.9227 16.8883 77.5517 17.1838 77.1468 17.4378L77.1468 17.4377L77.143 17.4402C75.937 18.2351 74.4525 18.6727 72.8183 18.6727C68.5519 18.6727 65.311 15.6326 65.311 11.4981C65.311 7.36601 68.6508 4.34539 72.8183 4.34539C74.216 4.34539 75.5366 4.70693 76.6702 5.3236C76.8221 5.41144 76.8365 5.56905 76.7452 5.66772L76.7451 5.66765L76.741 5.67234C76.0722 6.44157 75.5292 7.32342 75.1591 8.30674C75.1018 8.45293 74.9257 8.5117 74.7973 8.43739C74.235 8.06846 73.5438 7.85084 72.7957 7.85084C70.795 7.85084 69.1991 9.53894 69.1991 11.5199C69.1991 13.5006 70.7834 15.2108 72.8408 15.2108C73.8172 15.2108 74.6899 14.8423 75.3251 14.2401C76.0661 13.5466 76.4826 12.5769 76.4826 11.5199C76.4826 9.4897 77.2623 7.74185 78.5543 6.49282L78.5544 6.49289L78.5589 6.48826C78.8825 6.15457 79.2519 5.88065 79.6613 5.62392L79.6613 5.62396L79.6651 5.62147C80.8724 4.82569 82.3572 4.3672 84.0124 4.3672C88.171 4.3672 91.4357 7.33239 91.518 11.3216L91.4968 11.3626L91.4856 11.3844Z" stroke="black" stroke-width="0.4" class="xlSiSWHq_4"></path>
<path d="M94.2893 22.8945V4.81448H97.9179V6.14175V6.34175H98.1179H98.1969H98.2904L98.3503 6.27001C99.4468 4.9581 100.956 4.34539 102.699 4.34539C106.647 4.34539 109.473 7.46827 109.473 11.6836C109.473 15.5252 106.672 18.749 102.699 18.749C101.071 18.749 99.6503 18.2723 98.5336 17.0984L98.1887 16.7359V17.2363V22.8945H94.2893ZM105.562 11.5527C105.562 9.50089 103.927 7.79629 101.751 7.79629C99.5745 7.79629 97.9856 9.43637 97.9856 11.5527C97.9856 13.6747 99.6254 15.2654 101.774 15.2654C103.926 15.2654 105.562 13.5842 105.562 11.5527Z" stroke="black" stroke-width="0.4" class="xlSiSWHq_5"></path>
<path d="M120.614 5.42767C121.477 6.10591 122.035 7.07233 122.181 8.27635H118.352C118.298 7.92878 118.132 7.67316 117.881 7.50454C117.597 7.31279 117.228 7.2509 116.861 7.2509C116.475 7.2509 116.121 7.36226 115.859 7.55607C115.597 7.75049 115.42 8.03475 115.42 8.36726C115.42 8.58884 115.472 8.79223 115.593 8.97724C115.712 9.15949 115.888 9.31113 116.117 9.44523C116.568 9.70979 117.266 9.93072 118.257 10.1757C119.941 10.6085 121.032 11.148 121.702 11.8046C122.363 12.4527 122.631 13.2318 122.631 14.1927C122.631 15.5781 122.019 16.6993 121.014 17.4793C120.005 18.2623 118.592 18.7054 116.997 18.7054C115.402 18.7054 114.071 18.2709 113.103 17.5075C112.191 16.7879 111.589 15.7674 111.392 14.5127H115.262C115.354 14.913 115.56 15.2218 115.852 15.4345C116.181 15.6734 116.601 15.7782 117.053 15.7782C117.46 15.7782 117.875 15.6625 118.194 15.45C118.513 15.2368 118.754 14.9114 118.754 14.4982C118.754 14.2833 118.72 14.0802 118.623 13.8883C118.525 13.6965 118.372 13.5312 118.158 13.3791C117.737 13.0811 117.047 12.8117 115.972 12.485L115.971 12.4847C114.178 11.9487 113.075 11.3471 112.42 10.7012C111.775 10.0643 111.554 9.37332 111.554 8.61817C111.554 6.03667 114.075 4.30181 116.906 4.30181C118.424 4.30181 119.697 4.70708 120.614 5.42767Z" stroke="black" stroke-width="0.4" class="xlSiSWHq_6"></path>
<style data-made-with="vivus-instant">.xlSiSWHq_0{stroke-dasharray:114 116;stroke-dashoffset:115;animation:xlSiSWHq_draw_0 8100ms linear 0ms infinite,xlSiSWHq_fade 8100ms linear 0ms infinite;}.xlSiSWHq_1{stroke-dasharray:94 96;stroke-dashoffset:95;animation:xlSiSWHq_draw_1 8100ms linear 0ms infinite,xlSiSWHq_fade 8100ms linear 0ms infinite;}.xlSiSWHq_2{stroke-dasharray:74 76;stroke-dashoffset:75;animation:xlSiSWHq_draw_2 8100ms linear 0ms infinite,xlSiSWHq_fade 8100ms linear 0ms infinite;}.xlSiSWHq_3{stroke-dasharray:44 46;stroke-dashoffset:45;animation:xlSiSWHq_draw_3 8100ms linear 0ms infinite,xlSiSWHq_fade 8100ms linear 0ms infinite;}.xlSiSWHq_4{stroke-dasharray:125 127;stroke-dashoffset:126;animation:xlSiSWHq_draw_4 8100ms linear 0ms infinite,xlSiSWHq_fade 8100ms linear 0ms infinite;}.xlSiSWHq_5{stroke-dasharray:90 92;stroke-dashoffset:91;animation:xlSiSWHq_draw_5 8100ms linear 0ms infinite,xlSiSWHq_fade 8100ms linear 0ms infinite;}.xlSiSWHq_6{stroke-dasharray:68 70;stroke-dashoffset:69;animation:xlSiSWHq_draw_6 8100ms linear 0ms infinite,xlSiSWHq_fade 8100ms linear 0ms infinite;}@keyframes xlSiSWHq_draw{100%{stroke-dashoffset:0;}}@keyframes xlSiSWHq_fade{0%{stroke-opacity:1;}95.06172839506173%{stroke-opacity:1;}100%{stroke-opacity:0;}}@keyframes xlSiSWHq_draw_0{2.4691358024691357%{stroke-dashoffset: 115}58.0246913580247%{ stroke-dashoffset: 0;}100%{ stroke-dashoffset: 0;}}@keyframes xlSiSWHq_draw_1{2.4691358024691357%{stroke-dashoffset: 95}58.0246913580247%{ stroke-dashoffset: 0;}100%{ stroke-dashoffset: 0;}}@keyframes xlSiSWHq_draw_2{2.4691358024691357%{stroke-dashoffset: 75}58.0246913580247%{ stroke-dashoffset: 0;}100%{ stroke-dashoffset: 0;}}@keyframes xlSiSWHq_draw_3{2.4691358024691357%{stroke-dashoffset: 45}58.0246913580247%{ stroke-dashoffset: 0;}100%{ stroke-dashoffset: 0;}}@keyframes xlSiSWHq_draw_4{2.4691358024691357%{stroke-dashoffset: 126}58.0246913580247%{ stroke-dashoffset: 0;}100%{ stroke-dashoffset: 0;}}@keyframes xlSiSWHq_draw_5{2.4691358024691357%{stroke-dashoffset: 91}58.0246913580247%{ stroke-dashoffset: 0;}100%{ stroke-dashoffset: 0;}}@keyframes xlSiSWHq_draw_6{2.4691358024691357%{stroke-dashoffset: 69}58.0246913580247%{ stroke-dashoffset: 0;}100%{ stroke-dashoffset: 0;}}</style></svg>
