<?xml version="1.0" encoding="UTF-8"?><svg id="Layer_1" xmlns="http://www.w3.org/2000/svg" viewBox="0 0 118.23 187.83"><defs><style>.cls-1{fill:#fff;}</style></defs><path class="cls-1" d="M16.84,51.32v-7.34c0-2.38-1.14-4.04-3.41-4.04s-3.41,1.65-3.41,4.1v7.3h-1.61v-7.32c0-2.45-1.2-4.06-3.41-4.06s-3.41,1.63-3.41,4.06v7.32H0v-12.5H1.61v1.44c.75-1.2,2.04-1.76,3.41-1.76,1.82,0,3.31,.84,4.21,2.4,.99-1.53,2.38-2.4,4.21-2.4,3.22,0,5.02,2.38,5.02,5.33v7.51h-1.61v-.04Z"/><path class="cls-1" d="M32.55,51.32v-2.19h-.04c-1.03,1.55-2.84,2.49-4.87,2.49-3.74,0-6.72-2.84-6.72-6.59s3.07-6.53,6.72-6.53c2.08,0,3.86,.94,4.87,2.51h.04v-2.19h1.61v12.5h-1.61Zm.09-6.25c0-2.79-2.19-5.15-5.03-5.15s-5.09,2.19-5.09,5.17,2.17,5.07,5.13,5.07c2.79,0,5.02-2.28,5.02-5.09h-.02Z"/><path class="cls-1" d="M49.45,47.63c-1.27,2.55-3.31,3.99-6.21,3.99-3.72,0-6.72-2.77-6.72-6.68,0-3.43,3.01-6.46,6.72-6.46,2.75,0,5.18,1.53,6.21,4.1h-1.76c-.94-1.74-2.6-2.66-4.42-2.66-2.88,0-5.17,2.26-5.17,5.09s2.26,5.15,5.17,5.15c1.89,0,3.52-.86,4.42-2.55h1.76v.02Z"/><path class="cls-1" d="M51.73,51.32v-16.92h3.8v16.92h-3.8Z"/><path class="cls-1" d="M81.23,44.92c0,3.99-3.01,6.79-6.83,6.79-1.31,0-2.49-.32-3.52-.9-.22-.13-.28-.41-.11-.62,.6-.69,1.05-1.48,1.37-2.36,.09-.24,.37-.34,.6-.21,.47,.32,1.05,.51,1.67,.51,1.78,0,3.03-1.52,3.03-3.2s-1.27-3.18-3.05-3.18c-.79,0-1.52,.32-2.06,.88-.58,.58-.95,1.38-.95,2.28v.04c0,1.93-.73,3.57-1.91,4.75-.3,.32-.64,.6-1.01,.84-1.1,.75-2.45,1.16-3.93,1.16-3.87,0-6.83-2.86-6.83-6.76s3.05-6.74,6.83-6.74c1.27,0,2.47,.34,3.5,.92,.22,.13,.28,.41,.11,.6-.58,.69-1.05,1.48-1.37,2.36-.09,.24-.37,.34-.58,.21-.47-.32-1.05-.51-1.68-.51-1.67,0-3.01,1.46-3.01,3.18s1.33,3.2,3.05,3.2c.82,0,1.55-.32,2.08-.84,.62-.6,.97-1.44,.97-2.36,0-1.91,.71-3.56,1.89-4.74,.3-.32,.64-.58,1.01-.82,1.1-.75,2.45-1.18,3.95-1.18,3.82,0,6.83,2.86,6.83,6.7l-.04-.02Z"/><path class="cls-1" d="M83.38,55.55v-16.92h3.57v1.4h.07c1.01-1.25,2.4-1.83,3.99-1.83,3.61,0,6.18,2.96,6.18,6.91,0,3.61-2.55,6.66-6.18,6.66-1.48,0-2.79-.45-3.82-1.57v5.37h-3.8l-.02-.02Zm9.99-10.56c0-1.78-1.37-3.26-3.2-3.26s-3.16,1.42-3.16,3.26,1.37,3.22,3.18,3.22,3.18-1.46,3.18-3.22Z"/><path class="cls-1" d="M104.72,42.18c-.02-.73-.54-.95-1.16-.95s-1.1,.37-1.1,.84c0,.69,.62,1.03,2.38,1.48,3.01,.8,4.01,2.02,4.01,3.86,0,2.66-2.28,4.32-5.17,4.32s-4.88-1.63-5.17-4.21h3.78c.11,.8,.69,1.16,1.44,1.16,.66,0,1.33-.39,1.33-.99,0-.71-.43-1.07-2.34-1.67-3.2-.99-4.04-2.25-4.04-3.72,0-2.51,2.36-4.14,4.92-4.14,2.75,0,4.68,1.52,4.87,4.01h-3.72l-.02,.02Z"/></svg>