<svg width="554" height="453" viewBox="0 0 554 453" fill="none" xmlns="http://www.w3.org/2000/svg">
<path fill-rule="evenodd" clip-rule="evenodd" d="M310.4 406.103C363.901 406.103 410.852 366.306 384.484 312.252C358.117 258.197 456.088 259.944 484.867 222.584C519.964 177.024 509.8 -16.3742 284.491 101.531C248.4 120.418 155.708 82.1 124.962 101.113C88.77 123.492 37.8511 169.318 88.77 216.26C113.852 239.382 23.9279 299.398 63.3129 353.157C101.742 405.612 128.682 355.607 187.19 366.306C245.699 377.005 270.666 406.103 310.4 406.103Z" fill="#E8E3DD"/>
<path d="M248.302 312.065C248.302 312.065 260.621 306.27 265.22 302.238C269.819 298.207 275.537 288.191 275.537 288.191C275.537 288.191 338.34 333.547 379.29 327.077C388.725 325.587 407.11 319.315 408.282 308.265C411.484 278.091 367.19 270.381 376.865 255.08C382.772 245.739 401.118 259.64 401.118 259.64L477.214 297.07C477.214 297.07 450.925 361.873 387.128 364.469C308.649 367.664 248.302 312.065 248.302 312.065Z" fill="#FAF6F2"/>
<path fill-rule="evenodd" clip-rule="evenodd" d="M187.971 58.2826C187.256 58.0019 183.421 53.3055 178.551 52.4508C176.339 52.0623 178.347 54.8796 175.912 54.9054C168.659 54.9808 156.872 53.6179 154.689 54.9054C153.066 55.859 156.639 59.1897 154.689 59.3426C136.28 60.786 108.195 79.1662 102.103 88.0834C100.163 90.9213 115.847 86.1067 113.348 87.5094C110.543 89.0843 107.432 99.3953 105.573 107.358C104.286 112.842 103.475 119.899 103.189 127.577C102.95 134.205 103.045 135.302 103.999 138.926C105.096 142.979 105.954 144.171 107.432 143.599C107.958 143.408 108.195 142.693 108.195 141.358C108.195 140.309 108.768 137.161 109.483 134.348L110.723 129.294L111.248 131.391C111.915 133.823 115.825 141.357 119.354 146.841C119.544 147.132 120.363 146.762 121.101 144.978C121.774 143.351 121.501 140.753 122.645 137.968C125.248 131.626 130.36 123.379 136.28 116.778C145.028 107.022 147.931 95.7308 156.131 86.6674C171.436 69.7534 190.644 59.3323 187.971 58.2826Z" fill="#FAF6F2"/>
<path fill-rule="evenodd" clip-rule="evenodd" d="M113.565 89.8103C111.11 91.7847 107.466 107.798 107.404 108.065C106.116 113.549 104.875 132.592 106.143 136.197C107.412 139.802 110.964 126.806 110.964 126.806C110.964 126.806 116.333 140.748 121.078 144.571C121.28 144.734 115.439 127.321 113.565 117.156C111.092 103.739 114.962 88.6868 113.565 89.8103Z" fill="#E7EAEE"/>
<path fill-rule="evenodd" clip-rule="evenodd" d="M205.071 370.256C209.649 369.254 217.373 365.767 220.331 364.574C223.288 363.381 232.299 350.657 235.542 336.303C237.879 325.718 239.071 310.65 237.735 308.122C237.538 307.764 236.817 300.912 238.737 303.149C243.005 308.122 248.071 315.93 264.057 301.939C268.411 298.128 274.182 293.211 272.662 288.863C268.411 276.699 249.982 252.205 247.173 250.349C243.813 248.13 226.835 250.016 201.567 242.558C172.911 234.1 160.98 209.195 149.766 212.437C140.697 215.059 118.97 231.171 113.517 241.374C87.7727 289.544 118.97 323.296 126.074 332.991L132.972 335.97L133.211 342.121L133.544 345.984C134.165 353.375 134.402 354.043 137.741 356.522C146.085 362.864 162.537 368.777 177.414 370.875C184.329 371.829 199.35 371.495 205.071 370.256Z" fill="#FAF6F2"/>
<path fill-rule="evenodd" clip-rule="evenodd" d="M135.685 339.87L136.019 343.731C136.639 351.123 136.877 351.79 140.215 354.27C145.138 358.011 152.883 361.603 161.46 364.351C167.423 366.261 173.788 367.762 179.889 368.623C186.804 369.577 201.824 369.243 207.546 368.003C210.374 367.39 187.109 349.113 173.403 354.27C162.878 358.231 138.071 328.02 148.157 320.127C159.472 311.273 138.739 276.352 138.071 268.77C137.403 261.188 134.774 259.377 134.697 259.643C134.621 259.909 134.621 260.816 134.827 263.002C135.717 272.422 135.685 339.87 135.685 339.87Z" fill="#E7EAEE"/>
<path fill-rule="evenodd" clip-rule="evenodd" d="M133.202 266.606C134.202 266.411 135.172 267.065 135.367 268.067C138.965 286.556 154.189 299.073 181.409 305.619C208.792 312.204 227.444 311.848 237.272 304.82C238.101 304.227 237.483 309.307 236.875 309.697C230.465 313.807 208.673 319.94 182.666 314.397C149.413 307.31 133.8 279.349 131.741 268.772C131.547 267.771 132.2 266.801 133.202 266.606Z" fill="#FFB61D"/>
<path fill-rule="evenodd" clip-rule="evenodd" d="M119.335 233.245C120.22 232.739 153.247 270.59 198.571 279.158C243.896 287.726 254.869 282.277 256.633 270.59C256.786 269.582 257.727 268.887 258.735 269.04C259.744 269.192 260.438 270.133 260.285 271.141C258.05 285.953 237.077 289.476 197.95 282.799C159.314 276.206 132.826 260.542 118.649 235.765C118.142 234.88 118.45 233.751 119.335 233.245Z" fill="#FFB61D"/>
<path fill-rule="evenodd" clip-rule="evenodd" d="M309.569 231.147C308.328 230.718 306.994 229.765 306.135 228.668L304.705 226.903L309.759 221.896C317.532 214.267 323.493 206.446 328.643 197.148C330.359 194.049 334.698 183.701 334.698 182.7C334.698 182.366 335.223 181.03 335.843 179.648C336.797 177.645 337.512 176.882 339.562 175.738C341.994 174.307 344.76 173.831 345.952 174.641C348.241 176.167 348.241 180.983 345.952 189.28C343.425 198.388 340.039 204.92 333.029 214.315C331.933 215.745 329.882 218.558 328.404 220.514C324.446 225.759 321.871 228.286 318.391 230.241C314.957 232.148 312.954 232.387 309.569 231.147ZM343.806 226.856L347.239 228.382C347.951 228.71 355.806 232.484 365.239 237.017C380.449 244.325 399.766 253.607 399.883 253.607C400.075 253.607 400.969 251.538 401.171 249.124C401.648 243.927 403.412 236.869 405.462 231.958C406.416 229.765 407.179 227.023 407.179 226.785C407.179 226.676 406.404 226.363 405.135 225.851C403.624 225.242 401.414 224.35 398.978 223.184C386.961 217.414 363.452 205.636 360.543 203.871C357.682 202.203 357.11 202.06 357.11 203.156C357.11 204.587 354.201 211.215 351.96 214.791C350.769 216.746 348.431 220.275 346.763 222.611L343.806 226.856ZM399.073 245.023C400.44 245.816 398.071 246.979 397.5 247.169C394.13 247.456 390.163 246.822 386.913 244.928C385.214 243.723 371.833 236.289 362.957 231.358C358.9 229.104 355.783 227.373 355.155 226.999C353.152 225.807 351.245 224.519 350.911 224.138C349.91 222.85 350.864 222.278 353.677 222.516C355.368 222.659 396.119 243.312 399.073 245.023ZM205.234 369.862C208.913 369.057 214.623 366.648 218.258 365.114C219.148 364.738 219.912 364.416 220.494 364.181C223.451 362.988 232.462 350.264 235.705 335.91C238.041 325.325 239.234 310.256 237.899 307.729C237.094 306.265 241.876 311.175 245.438 314.832C246.518 315.941 247.485 316.934 248.151 317.6C268.941 338.248 299.888 354.842 332.028 362.614C348.05 366.524 359.447 367.907 374.754 367.907C400.456 367.907 420.722 362.853 439.128 351.742C440.002 351.214 440.822 350.73 441.602 350.267C448.018 346.468 451.841 344.205 462.303 332.43C474.037 319.221 484.476 288.56 487.957 277.974C489.483 273.205 493.203 254.239 493.203 249.506C493.203 243.903 491.247 241.257 488.577 238.539C483.856 233.913 477.466 232.244 472.174 234.247L469.694 235.201L468.931 232.674C467.834 228.858 465.546 225.807 462.017 223.518C456.772 220.036 456.009 219.799 451.288 219.799C447.616 219.799 446.614 219.989 444.278 221.086L441.56 222.326L440.988 220.609C439.891 217.08 436.212 212.162 433.358 210.738C430.827 209.477 426.445 209.361 423.392 209.928C416.716 211.167 411.948 214.267 409.993 218.606C409.42 219.941 408.705 220.991 408.419 220.991C408.181 220.991 398.787 218.367 387.581 213.408C385.69 212.569 383.915 211.781 382.248 211.042C362.125 202.123 357.763 200.19 358.16 197.768C358.493 195.717 358.397 194.573 357.826 192.808C356.824 189.852 355.68 189.042 352.437 189.042C349.862 189.042 349.862 189.042 350.148 187.755C351.674 180.459 351.627 176.262 350.005 173.592C348.909 171.827 347.621 171.112 344.664 170.683C342.948 170.445 342.137 170.588 340.23 171.637C338.942 172.305 337.846 172.781 337.75 172.686C337.655 172.59 337.989 169.968 338.513 166.868C342.423 143.932 339.403 124.17 329.437 103.189C329.341 102.988 329.23 102.751 329.104 102.479C326.074 95.9745 313.891 69.819 279.051 56.6213C277.474 56.0237 275.981 55.446 274.547 54.8913C262.679 50.2975 254.789 47.2431 235.753 47.2749C214.416 47.3104 207.189 50.3271 193.122 56.7646C191.168 57.6702 189.451 58.1946 189.308 58.004C189.165 57.7655 188.259 57.1937 187.353 56.7165C186.447 56.2401 184.492 55.0479 183.061 54.0943C178.96 51.328 176.433 50.1838 175.145 50.4696C173.667 50.8515 173.667 52.091 175.145 52.6635C175.765 52.9021 176.481 53.7124 176.767 54.5234C177.386 56.2401 178.101 56.4307 178.531 54.9999C178.722 54.4754 179.008 54.0943 179.151 54.1896C179.205 54.2162 179.387 54.3018 179.664 54.4311C180.361 54.7576 181.662 55.367 183.061 56.0488C185.016 57.0024 187.162 58.004 187.734 58.2426C188.783 58.6238 188.449 58.9104 183.919 61.5807C166.228 71.9759 151.828 88.1409 143.769 106.547C142.529 109.313 141.433 111.029 140.288 111.984C137.379 114.415 131.657 121.329 130.322 124.047C129.607 125.526 128.08 127.815 126.888 129.149C125.744 130.485 124.504 132.202 124.075 132.917C123.694 133.68 123.312 134.204 123.169 134.109C123.074 133.966 123.216 131.629 123.55 128.912C124.266 122.569 124.266 120.9 123.694 120.757C122.835 120.519 121.596 123.857 121.071 128.005C120.689 130.532 120.594 134.347 120.833 138.257L121.119 144.457L117.733 138.973C116.569 137.139 115.423 135.306 114.608 134.003V134.002L114.607 134.002L114.606 133.999L114.604 133.997V133.997L114.603 133.996L114.602 133.994C114.086 133.167 113.703 132.556 113.537 132.297C112.297 130.485 111.582 127.767 112.106 126.861C112.392 126.337 112.345 126.098 111.867 126.098C110.867 126.098 108.911 129.293 107.624 132.965C107.004 134.681 106.384 136.111 106.193 136.111C105.478 136.111 105.812 119.041 106.575 113.557C108.148 102.733 112.297 89.3804 114.157 89.3804C114.538 89.3804 114.872 89.1898 114.872 88.9039C114.872 88.0456 113.632 88.3795 112.631 89.4764C110.389 91.9081 107.433 99.3945 105.573 107.358C104.286 112.842 103.475 119.899 103.189 127.576C102.951 134.204 103.046 135.301 104 138.925C105.097 142.978 105.955 144.17 107.433 143.599C107.958 143.407 108.196 142.692 108.196 141.357C108.196 140.308 108.768 137.161 109.484 134.347L110.723 129.293L111.248 131.391C111.915 133.823 115.825 141.357 119.354 146.841C121.786 150.56 121.834 150.798 122.645 156.616C123.074 159.906 124.409 167.91 127.508 180.22C130.247 191.098 145.642 201.887 149.487 204.582L149.489 204.584C149.994 204.937 150.3 205.152 150.349 205.207C150.826 205.731 151.494 206.017 151.875 205.875C152.304 205.731 152.543 205.922 152.543 206.447C152.543 206.924 152.877 207.543 153.258 207.829C153.735 208.163 154.069 209.451 154.164 211.692C154.403 216.174 157.74 224.757 160.315 227.571C161.985 229.383 165.465 230.146 169.328 229.478C171.855 229.097 172.57 228.811 172.332 228.239C172.189 227.857 173.095 228.334 174.335 229.288C188.831 240.351 203.518 246.979 220.016 249.839C226.407 250.936 236.992 251.556 242.762 251.127C247.865 250.794 247.865 250.794 247.626 251.795C247.292 253.13 247.722 253.941 254.731 265.814C260.31 275.208 260.787 275.828 266.986 282.17C280.147 295.76 294.5 306.299 310.761 314.453C326.068 322.082 350.506 328.424 372.847 330.427C395.187 332.43 411.232 311.925 411.185 306.68C411.09 299.479 410.088 294.759 407.656 290.181C405.272 285.746 403.698 284.221 396.545 279.452C388.582 274.159 383.671 269.82 380.428 265.194C378.378 262.285 377.615 258.995 377.615 257.231C377.615 256.086 379.093 253.511 381.287 252.987C383.289 252.462 383.671 252.51 385.912 253.607C387.247 254.226 390.728 255.848 393.589 257.231C396.498 258.566 399.311 259.902 399.883 260.187C401.57 260.656 402.284 263.958 402.67 265.748C402.757 266.148 402.827 266.472 402.887 266.672C403.555 269.152 406.714 272.354 408.753 273.444C412.332 275.358 421.152 275.614 423.583 272.991C424.204 272.324 426.259 271.502 426.682 271.751C427.106 272 428.637 274.063 428.637 275.733C428.685 278.594 430.163 281.217 433.31 283.839C439.271 288.798 443.897 289.99 448.569 287.797C451.001 286.652 452.995 286.206 452.995 286.206C452.995 286.206 454.983 288.742 455.102 289.609C456.039 296.384 466.069 299.224 468.74 299.51C469.352 299.572 470.543 299.309 471.753 299.044C473.37 298.688 475.021 298.325 475.368 298.716C476.049 299.485 463.971 319.46 462.303 321.987C446.424 345.829 415.524 360.421 377.71 361.947C353.152 362.948 322.968 356.081 296.789 343.588C280.052 335.529 265.222 325.658 249.343 311.83C246.577 309.445 243.382 306.728 242.238 305.774C241.094 304.868 238.375 301.768 236.277 298.908C232.749 294.139 230.746 292.422 230.746 294.043C230.746 294.759 233.035 299.145 235.657 303.485C236.707 305.202 237.374 306.394 237.136 306.203C236.897 306.012 236.134 309.445 235.419 313.832C233.082 327.9 229.219 341.776 225.31 350.407C223.164 355.08 219.049 358.57 217.809 359.523C213.232 363.005 206.379 364.569 196.889 365.523C184.873 366.715 167.182 364.045 153.687 358.99C150.111 357.655 140.907 353.793 140.288 353.364C140.251 353.326 140.039 351.954 139.745 350.04C139.661 349.5 139.572 348.917 139.477 348.309C137.761 336.531 135.376 291.183 135.376 270.201C135.376 261.522 135.281 259.615 134.709 259.615C133.516 259.615 133.04 260.76 132.515 264.86C131.323 274.207 131.562 322.988 132.849 333.24L133.135 335.577L131.514 334.671C129.034 333.24 119.592 323.656 116.302 319.221C113.517 315.429 111.862 310.574 110.623 306.941C110.335 306.096 110.07 305.318 109.817 304.634C102.903 285.465 105.335 263.955 114.872 244.594C122.978 228.095 132.945 218.94 147.536 214.505C149.92 213.79 152.018 213.027 152.257 212.837C153.163 211.978 147.345 212.408 144.15 213.408C133.755 216.603 122.883 225.33 115.492 236.488C105.097 252.129 100.423 275.208 103.713 294.902C104.476 299.575 107.576 309.684 108.434 310.399C108.51 310.475 108.902 311.298 109.496 312.543C111.136 315.983 114.312 322.647 116.588 325.658C119.354 329.426 127.699 337.627 131.18 340.155L133.374 341.728L133.708 345.591C134.327 352.982 134.566 353.649 137.903 356.129C146.249 362.471 162.7 368.384 177.577 370.482C184.492 371.436 199.512 371.102 205.234 369.862ZM366.409 325.086C338.704 322.654 305.229 309.445 281.005 289.036C270.801 280.405 257.544 263.621 252.299 254.322C251.202 252.414 250.392 251.509 249.438 251.27C248.437 250.984 249.295 250.698 253.396 250.031C270.705 247.074 287.538 239.873 301.129 229.621L303.131 228.143L303.704 229.526C304.991 232.626 309.95 235.773 313.622 235.773C315.1 235.773 320.059 233.532 323.063 231.481L325.114 230.099L326.783 231.767C328.309 233.293 328.594 233.389 331.456 233.389C334.746 233.389 338.704 231.911 340.898 229.812L342.089 228.715L345.475 230.957C347.287 232.244 352.342 235.057 356.681 237.298C363.166 240.636 370.033 244.499 376.566 248.505L377.615 249.172L376.613 250.507C375.564 251.938 373.61 254.656 373.61 258.805C373.61 263.477 378.469 271.874 387.771 277.64C395.08 282.17 407.656 291.081 407.179 304.105C407.121 305.678 405.367 309.589 403.031 313.117C401.505 315.358 397.261 318.696 393.398 320.652C386.818 323.942 375.23 325.849 366.409 325.086ZM112.154 111.029C113.442 111.316 114.3 111.745 114.109 111.936C113.489 112.555 110.199 112.269 109.436 111.506C108.244 110.362 108.529 109.551 110.199 109.217C111.057 109.075 112.345 108.359 113.06 107.644C113.775 106.929 114.395 106.595 114.395 106.834C114.395 107.453 112.011 109.646 110.819 110.124C110.056 110.457 110.294 110.6 112.154 111.029ZM131.133 111.792C132.515 111.029 132.229 110.505 130.607 110.743C128.987 110.982 128.892 110.791 129.94 109.17C130.37 108.55 130.607 107.644 130.512 107.167C130.37 106.547 130.036 106.834 129.273 108.359C128.7 109.456 127.89 110.362 127.508 110.362C126.317 110.362 126.221 111.316 127.365 111.745C128.844 112.365 129.988 112.365 131.133 111.792ZM114.634 85.7565C113.489 85.9471 109.913 87.3779 106.765 88.9512C103.571 90.4773 100.852 91.7648 100.662 91.7175C95.7978 91.1931 102.569 83.0862 114.872 74.7895C126.65 66.8259 134.613 62.6296 142.004 60.4837C146.63 59.1482 151.828 58.9577 153.306 60.0546C154.116 60.6743 153.83 60.7223 150.302 60.7696C142.672 60.7696 133.85 64.6801 119.497 74.2643C112.059 79.2237 103.427 86.3289 103.427 87.4731C103.427 87.7117 104.81 87.2346 106.527 86.4723C110.199 84.8029 113.966 83.9445 115.635 84.3264C117.399 84.8029 117.017 85.4226 114.634 85.7565ZM133.087 89.8576C137.57 88.9512 137.761 88.9039 137.761 88.4268C137.761 88.1889 136.044 87.9503 133.898 87.855L130.036 87.7117L133.612 83.6587C135.567 81.4176 137.856 79.1764 138.666 78.652C140.431 77.507 140.526 76.6967 139.095 76.2196L137.999 75.8857L139.191 75.4565C139.859 75.2187 141.099 75.1226 141.957 75.2659C143.245 75.4565 143.53 75.3612 143.387 74.6935C143.245 74.0265 142.72 73.8832 140.383 73.9312C133.564 74.0265 130.655 75.8384 135.996 76.6967C137.474 76.9353 138.714 77.3165 138.714 77.5551C138.714 77.7456 138.476 77.9362 138.19 77.9362C137.284 77.9362 129.607 85.7092 128.653 87.6164C127.175 90.43 127.985 90.8592 133.087 89.8576ZM164.56 71.3562C163.177 71.4515 162.843 71.6893 162.938 72.3571L162.953 72.4546C163.006 72.8069 163.037 73.0101 162.958 73.0714C162.851 73.1541 162.544 72.9805 161.823 72.5713L161.698 72.5004C160.792 72.0232 160.697 71.7853 161.221 71.4035C161.555 71.1176 162.461 70.6884 163.177 70.5451L164.512 70.2112L163.511 69.1623C162.985 68.5426 162.7 67.9701 162.843 67.7796C163.224 67.3984 167.898 67.9229 168.565 68.4473C168.851 68.6852 169.28 68.6379 169.566 68.352C170.234 67.6843 171.14 68.2087 171.14 69.2576C171.14 69.8301 170.997 69.8774 170.568 69.4482C170.186 69.0671 169.852 69.067 169.423 69.4009C169.042 69.7348 168.756 69.7348 168.517 69.3529C168.374 69.1143 167.468 68.8765 166.515 68.8765C165.634 68.8765 165.218 68.8765 165.133 69.0442C165.057 69.1941 165.248 69.4792 165.608 70.0207C166.369 71.2092 166.324 71.2129 164.576 71.3547L164.56 71.3562ZM157.311 58.6718C157.311 58.0521 156.739 56.9551 156.023 56.2401L154.689 54.9046L161.841 55.1905C165.799 55.3818 170.281 55.8109 171.855 56.2401C173.429 56.6213 175.241 56.9071 175.908 56.9071C176.91 56.9071 176.719 56.7165 174.859 55.7149C171.617 54.0463 167.468 53.2359 159.505 52.6635C149.968 51.9957 145.152 52.9021 146.057 55.2857C146.201 55.7629 146.964 56.0015 148.108 56.0015C150.444 56.0015 154.26 57.3843 155.547 58.6718C156.93 60.0546 157.311 60.0546 157.311 58.6718ZM134.041 184.941C137.903 189.9 143.006 195.527 145.39 197.434C146.82 198.579 148.061 199.533 148.156 199.533C148.203 199.533 147.154 197.339 145.82 194.668C140.431 183.939 137.284 173.258 135.805 160.956C135.472 158.237 134.947 155.948 134.375 154.995C133.23 153.087 133.23 150.608 134.423 148.271C135.042 147.032 135.376 145.458 135.376 143.741V141.119L133.087 143.502C130.846 145.84 128.7 146.793 128.7 145.362C128.7 144.314 132.229 139.259 134.089 137.685C135.567 136.445 135.757 136.016 136.235 132.297C136.568 130.056 137.332 126.098 137.951 123.475C138.619 120.853 139 118.612 138.905 118.516C138.571 118.182 127.365 131.052 125.839 135.158C125.504 136.06 124.6 137.637 123.884 138.591L122.645 140.183C122.645 140.183 123.029 142.412 123.455 145.213C123.885 148.044 124.086 149.989 124.267 151.722C124.507 154.04 124.708 155.978 125.362 159.144C126.125 163.054 126.888 166.439 127.079 166.677C127.222 166.964 127.842 169.157 128.462 171.589C129.797 176.977 132.038 182.318 134.041 184.941ZM327.546 230.051L326.545 229.049C326.545 229.049 343.165 207.933 346.143 200.152C348.415 194.215 349.753 192.531 351.557 192.531C352.567 192.531 353.391 192.761 353.772 193.334C354.44 194.335 355.083 195.575 354.225 199.818C352.795 206.685 350.601 211.215 344.02 220.991C342.495 223.232 340.539 225.712 339.681 226.57C337.679 228.429 333.173 230.336 330.55 230.766C328.881 231.004 328.404 230.909 327.546 230.051Z" fill="#00160A"/>
<path d="M459.584 276.7C465.517 260.536 464.619 257.093 463.59 256.756C463.59 256.756 461.325 258.043 460.323 260.761C458.464 265.864 452.098 279.215 449.714 281.599C446.901 284.413 446.901 284.413 444.039 284.413C441.178 284.413 432.927 280.104 431.803 275.857C430.006 269.061 437.745 245.454 437.936 244.119L436.648 243.213C435.79 244.024 424.625 277.88 409.945 269.058C408.264 268.048 404.699 263.289 404.413 260.761C402.824 253.418 410.115 227.739 411.355 222.465C412.465 217.744 418.242 213.363 425.347 213.363C436.267 213.363 434.8 222.908 439.691 226.271C441.859 227.762 445.421 225.06 446.519 224.854C452.67 223.71 455.028 225.043 459.537 228.621C463.018 231.384 465.593 236.852 468.428 238.778C470.003 239.848 471.674 238.386 472.221 238.111C474.465 236.985 479.279 237.824 480.613 238.778C482.571 239.632 487.368 244.243 488.125 246.924C491.56 259.078 480.715 286.023 476.621 291.078C469.844 299.445 453.652 292.863 459.584 276.7Z" fill="#FAF6F2"/>
<path fill-rule="evenodd" clip-rule="evenodd" d="M185.445 232.409C198.511 240.659 211.983 246.047 227.338 247.525C239.45 248.67 255.78 247.096 267.51 243.282C277.381 240.087 290.733 231.236 299.651 223.75C316.96 209.254 327.879 186.61 332.648 162.578C333.315 159.192 334.334 150.682 334.286 142.242C334.286 132.418 329.963 105.575 316.864 90.097C289.848 58.1733 245.441 43.7929 208.119 56.0806C194.655 60.5126 180.32 68.5434 169.496 79.034C155.858 92.3381 145.797 110.458 141.792 128.96C137.595 148.511 143.054 171.876 152.543 191.045C160.124 206.305 172.618 224.256 185.445 232.409ZM312.763 174.785C303.799 201.726 280.433 221.85 251.06 227.954C246.577 228.859 243.478 229.193 237.183 229.288C232.749 229.432 228.314 229.384 227.408 229.288C206.855 226.809 191.215 219.227 176.815 204.826C170.52 198.484 167.849 195.051 163.94 188.28C157.788 177.551 154.498 166.583 153.496 153.374C150.063 108.122 182.441 70.4026 228.028 66.4929C245.91 64.9668 265.746 70.4507 280.815 81.1318C286.394 85.0896 296.503 95.1037 299.651 99.7765C300.938 101.636 313.431 119.9 315.625 130.39C318.438 144.028 317.342 161.099 312.763 174.785Z" fill="#FAF6F2"/>
<path fill-rule="evenodd" clip-rule="evenodd" d="M334.303 142.24C334.303 174.246 319.163 209.239 299.624 224.183C290.302 231.312 278.119 239.945 267.511 243.281C251.963 248.169 227.337 247.524 227.337 247.524C227.337 247.524 252.461 244.166 261.771 240.419C288.469 229.675 303.043 213.182 312.043 197.357C329.807 166.12 334.303 141.463 334.303 142.24Z" fill="#E7EAEE"/>
<path fill-rule="evenodd" clip-rule="evenodd" d="M227.885 223.566C215.153 221.944 202.516 217.414 192.312 210.691C186.256 206.733 177.1 197.435 172.666 190.807C166.324 181.27 162.128 171.065 160.077 160.097C158.599 152.134 158.646 139.879 160.124 132.774C161.651 125.526 163.606 119.994 167.086 112.985C171.14 104.878 175.432 98.9179 181.869 92.4804C192.836 81.5127 205.568 74.5508 220.732 71.2127C225.643 70.1638 243.43 69.3055 244.05 70.1166C244.193 70.3544 245.146 70.9749 246.148 71.4993C247.149 72.0711 249.82 74.0743 252.013 76.0288C255.303 78.8904 256.782 80.7024 259.643 85.1846C261.598 88.2368 263.171 91.0024 263.171 91.2409C263.171 91.7654 264.697 92.719 265.556 92.719C266.748 92.719 267.558 89.1424 267.797 82.8482C267.939 79.3669 268.226 76.506 268.417 76.506C269.084 76.506 276.427 80.5591 279.861 82.8482C286.585 87.3304 293.308 93.6246 298.268 100.205C300.509 103.162 300.843 103.925 300.843 105.737C300.843 107.406 301.319 108.693 302.797 111.268C306.517 117.753 309.425 125.907 311.19 134.92C312.334 140.976 312.334 152.42 311.142 158.762C307.9 176.215 298.268 193.572 285.727 204.587C275.093 213.885 263.791 219.608 250.44 222.422C245.861 223.422 232.129 224.09 227.885 223.566ZM193.79 190.949C194.219 190.473 194.506 189.757 194.362 189.424C194.32 189.323 193.722 189.043 192.848 188.632C190.811 187.674 187.269 186.009 185.734 184.274C179.63 177.312 177.389 172.114 176.006 161.385C174.671 150.942 175.793 143.882 178.2 132.535C179.374 127.001 182.495 122.428 184.436 119.584C185.757 117.65 186.532 116.514 185.779 116.418C183.919 116.132 183.633 116.275 181.678 118.135C177.482 122.14 175.574 125.335 173.572 131.486C170.472 141.119 169.873 167.15 176.006 178.885C182.14 190.62 192.693 192.189 193.79 190.949ZM261.598 150.894C260.788 158.302 257.354 169.014 253.349 173.687C251.489 175.881 244.662 179.648 238.9 178.885C233.334 178.148 228.981 175.547 225.262 169.968C222.067 165.152 220.417 159.306 219.301 151.943C217.375 139.229 225.787 124.429 229.411 120.757C233.083 116.99 235.705 115.655 239.043 115.607C242.286 115.607 244.383 116.323 247.674 118.66C253.682 122.856 263.171 136.5 261.598 150.894ZM197.319 111.459C198.272 110.362 198.415 109.838 198.13 107.787C197.939 105.88 197.557 105.117 196.555 104.306C194.792 102.876 192.598 102.876 190.977 104.402C189.832 105.499 189.69 105.88 189.832 108.502C189.975 111.316 190.071 111.506 191.644 112.365C193.743 113.51 195.793 113.176 197.319 111.459ZM227.074 82.0372C218.491 88.1888 214.772 90.7158 210.909 93.1002C207.857 95.0074 206.903 95.0554 206.903 93.3388C206.903 92.4324 207.571 91.4315 209.288 89.8574L211.672 87.6643L207.047 87.0446C201.849 86.3768 196.794 84.946 195.697 83.8491C193.885 81.9899 195.459 81.5607 200.609 82.5143C202.898 82.8955 207.333 83.3727 210.48 83.468L216.202 83.7065L220.35 80.7024C229.458 74.1216 238.9 70.4024 243.43 71.5466C246.243 72.2144 245.909 72.9774 242.715 73.3586C239.043 73.7877 236.802 75.028 227.074 82.0372Z" fill="#FAF6F2"/>
<path d="M239.329 172.353C239.329 172.114 239.614 171.876 239.996 171.876C240.378 171.876 240.855 172.114 240.997 172.353C241.141 172.639 240.855 172.83 240.33 172.83C239.758 172.83 239.329 172.639 239.329 172.353Z" fill="#FAF6F2"/>
<path d="M242.19 171.922C242.19 171.398 243.382 170.921 244.717 170.921C245.766 170.968 245.766 170.968 244.861 171.636C243.811 172.447 242.19 172.59 242.19 171.922Z" fill="#FAF6F2"/>
<path d="M234.799 170.683C234.656 170.302 234.465 169.634 234.322 169.252C234.179 168.776 234.417 168.537 235.037 168.537C235.562 168.537 235.991 168.823 235.991 169.205C235.991 169.586 236.134 170.206 236.277 170.635C236.468 171.16 236.325 171.398 235.8 171.398C235.371 171.398 234.895 171.064 234.799 170.683Z" fill="#FAF6F2"/>
<path d="M237.326 169.49C237.088 168.059 237.612 167.582 239.329 167.582C239.853 167.582 240.282 168.059 240.474 168.87C240.855 170.253 240.235 170.92 238.566 170.92C237.803 170.92 237.469 170.586 237.326 169.49Z" fill="#FAF6F2"/>
<path d="M232.462 169.729C231.557 169.013 231.557 169.013 232.557 169.013C233.178 169.013 233.607 169.3 233.607 169.729C233.607 170.587 233.607 170.587 232.462 169.729Z" fill="#FAF6F2"/>
<path d="M242.047 169.68C241.427 169.06 241.713 167.201 242.476 166.914C243.859 166.39 244.479 166.629 244.765 167.868C244.956 168.584 245.051 169.204 244.956 169.251C244.574 169.68 242.333 169.967 242.047 169.68Z" fill="#FAF6F2"/>
<path d="M246.291 168.682C246.148 168.539 246.005 167.919 246.005 167.347C246.005 166.536 246.387 166.203 247.531 165.964C248.533 165.773 249.152 165.869 249.438 166.25C249.915 167.013 249.915 167.966 249.486 168.205C248.628 168.681 246.625 168.968 246.291 168.682Z" fill="#FAF6F2"/>
<path d="M230.269 167.203C230.269 166.63 230.698 166.154 231.318 166.011C232.558 165.677 232.51 165.629 232.749 166.869C232.844 167.584 232.605 167.871 231.604 167.966C230.555 168.108 230.269 167.918 230.269 167.203Z" fill="#FAF6F2"/>
<path d="M233.893 167.249C233.225 166.534 233.654 165.198 234.56 165.198C235.18 165.198 235.514 165.532 235.514 166.105C235.514 167.011 234.417 167.773 233.893 167.249Z" fill="#FAF6F2"/>
<path d="M236.754 165.821C236.373 164.914 237.183 164.247 238.756 164.247C239.472 164.247 239.806 164.533 239.806 165.153C239.806 165.677 239.377 166.155 238.756 166.345C237.183 166.726 237.088 166.726 236.754 165.821Z" fill="#FAF6F2"/>
<path d="M250.535 165.676C250.678 165.437 250.916 165.198 251.059 165.198C251.203 165.198 251.155 165.437 251.011 165.676C250.869 165.962 250.63 166.153 250.487 166.153C250.344 166.153 250.392 165.962 250.535 165.676Z" fill="#FAF6F2"/>
<path d="M241.045 164.865C240.664 163.912 241.141 163.435 242.667 163.196C243.525 163.101 243.907 163.292 244.002 163.959C244.336 165.533 241.618 166.392 241.045 164.865Z" fill="#FAF6F2"/>
<path d="M229.601 164.056C229.172 162.483 229.267 162.339 230.507 162.339C231.174 162.339 231.699 162.531 231.699 162.769C231.699 163.007 231.842 163.532 231.986 163.913C232.128 164.39 231.842 164.676 231.032 164.819C230.126 165.01 229.792 164.819 229.601 164.056Z" fill="#FAF6F2"/>
<path d="M245.528 163.53C245.528 162.672 245.861 162.29 246.768 162.051C248.103 161.717 248.866 162.385 248.866 163.911C248.866 164.531 248.484 164.721 247.197 164.721C245.718 164.721 245.528 164.579 245.528 163.53Z" fill="#FAF6F2"/>
<path d="M228.17 163.531C228.028 163.15 228.123 162.816 228.361 162.816C228.648 162.816 228.838 163.15 228.838 163.531C228.838 163.913 228.743 164.246 228.648 164.246C228.552 164.246 228.361 163.913 228.17 163.531Z" fill="#FAF6F2"/>
<path d="M232.986 163.913C232.319 163.293 232.701 161.958 233.559 161.719C234.083 161.576 234.608 161.624 234.751 161.767C235.324 162.291 234.99 163.674 234.274 163.96C233.368 164.294 233.368 164.294 232.986 163.913Z" fill="#FAF6F2"/>
<path d="M250.01 163.579C249.485 162.196 250.058 161.147 251.393 161.004C252.394 160.861 252.681 161.052 252.681 161.815C252.681 163.388 252.156 164.246 251.202 164.246C250.677 164.246 250.153 163.961 250.01 163.579Z" fill="#FAF6F2"/>
<path d="M236.324 162.958C235.753 162.434 235.943 161.48 236.754 161.194C237.66 160.86 239.567 161.814 239.043 162.338C238.375 162.911 236.658 163.34 236.324 162.958Z" fill="#FAF6F2"/>
<path d="M240.473 161.765C240.044 161.098 241.57 159.953 242.81 159.953C243.382 159.953 243.62 160.239 243.525 160.764C243.334 161.717 240.902 162.48 240.473 161.765Z" fill="#FAF6F2"/>
<path d="M227.408 161.432C227.408 161.194 227.265 160.669 227.122 160.24C226.978 159.811 227.026 159.477 227.312 159.477C227.932 159.477 228.409 161.289 227.837 161.671C227.599 161.814 227.408 161.718 227.408 161.432Z" fill="#FAF6F2"/>
<path d="M228.695 160.337C228.409 159.288 228.981 158.525 230.078 158.525C230.698 158.525 231.318 160.385 230.937 161.005C230.412 161.816 228.933 161.338 228.695 160.337Z" fill="#FAF6F2"/>
<path d="M232.033 160.573C231.318 159.858 231.747 158.141 232.701 157.903C233.416 157.712 233.798 157.95 234.179 158.808C234.465 159.429 234.608 160.048 234.513 160.144C234.035 160.573 232.319 160.907 232.033 160.573Z" fill="#FAF6F2"/>
<path d="M244.908 160.575C244.288 159.955 244.574 159.573 246.005 159.049C247.197 158.667 247.531 158.715 247.769 159.287C248.198 160.431 245.814 161.528 244.908 160.575Z" fill="#FAF6F2"/>
<path d="M249.104 159.476C248.627 158.714 249.295 158.046 250.534 158.046C252.013 158.046 252.442 159.286 251.107 159.668C249.676 160.049 249.438 160.001 249.104 159.476Z" fill="#FAF6F2"/>
<path d="M253.157 158.333C253.157 157.618 254.016 156.855 254.397 157.236C254.731 157.57 254.064 159.001 253.586 159.001C253.348 159.001 253.157 158.714 253.157 158.333Z" fill="#FAF6F2"/>
<path d="M226.788 157.714C226.597 157.57 226.454 156.951 226.502 156.426C226.502 155.52 226.549 155.52 226.978 156.57C227.455 157.714 227.36 158.286 226.788 157.714Z" fill="#FAF6F2"/>
<path d="M227.694 156.999C227.265 155.329 227.312 155.187 228.552 155.187C229.935 155.187 230.794 156.951 229.745 157.618C228.648 158.286 228.028 158.096 227.694 156.999Z" fill="#FAF6F2"/>
<path d="M244.098 157.952C244.098 157.809 244.336 157.046 244.622 156.188C245.289 154.28 246.768 154.184 247.102 156.044C247.244 156.759 247.292 157.38 247.244 157.427C247.006 157.713 244.098 158.142 244.098 157.952Z" fill="#FAF6F2"/>
<path d="M231.079 156.761C230.889 156.618 230.745 156.045 230.745 155.521C230.745 154.758 230.889 154.71 231.461 155.187C231.842 155.521 232.176 156.093 232.176 156.427C232.176 157.142 231.604 157.333 231.079 156.761Z" fill="#FAF6F2"/>
<path d="M248.246 155.806C247.96 154.328 248.58 153.66 250.058 153.85C250.773 153.946 251.012 154.375 251.012 155.424C251.012 156.617 250.821 156.903 249.772 156.998C248.723 157.141 248.485 156.903 248.246 155.806Z" fill="#FAF6F2"/>
<path d="M252.919 155.996C252.299 154.088 252.49 153.517 253.777 153.373C254.921 153.23 255.065 153.373 255.065 154.613C255.065 155.662 254.779 156.092 254.063 156.282C253.539 156.425 253.014 156.282 252.919 155.996Z" fill="#FAF6F2"/>
<path d="M226.073 153.278C226.073 152.372 226.168 151.991 226.311 152.467C226.406 152.896 226.406 153.659 226.311 154.136C226.168 154.566 226.073 154.184 226.073 153.278Z" fill="#FAF6F2"/>
<path d="M227.265 153.899C226.645 153.327 226.931 151.467 227.694 151.181C228.791 150.752 229.315 151.276 229.315 152.85C229.315 153.851 229.077 154.233 228.457 154.233C227.98 154.233 227.407 154.09 227.265 153.899Z" fill="#FAF6F2"/>
<path d="M230.126 152.61C229.935 151.895 229.84 151.132 230.03 150.989C230.507 150.512 230.793 151.275 230.65 152.658L230.507 153.993L230.126 152.61Z" fill="#FAF6F2"/>
<path d="M245.528 152.279C245.528 151.753 245.766 151.467 246.005 151.611C246.291 151.753 246.481 152.231 246.481 152.612C246.481 152.994 246.291 153.279 246.005 153.279C245.766 153.279 245.528 152.85 245.528 152.279Z" fill="#FAF6F2"/>
<path d="M247.674 152.898C247.007 152.183 247.531 150.895 248.627 150.609C250.011 150.275 250.058 150.275 250.487 151.658C250.773 152.517 250.582 152.708 249.343 152.898C248.58 153.041 247.817 152.994 247.674 152.898Z" fill="#FAF6F2"/>
<path d="M252.06 151.991C251.536 151.514 251.679 149.941 252.204 149.941C252.489 149.941 252.68 149.75 252.68 149.463C252.68 149.226 252.394 148.987 252.013 148.987C251.202 148.987 250.535 146.651 251.202 145.983C252.06 145.124 253.014 146.03 253.586 148.367C253.92 149.607 254.254 151.037 254.397 151.514C254.588 152.134 254.397 152.325 253.491 152.325C252.871 152.325 252.204 152.182 252.06 151.991Z" fill="#FAF6F2"/>
<path d="M254.636 149.465C254.302 148.034 253.444 145.173 252.824 143.075C251.87 140.023 251.775 139.26 252.299 138.926C252.633 138.688 253.062 138.497 253.205 138.497C253.73 138.497 255.637 148.273 255.447 150.18L255.303 152.087L254.636 149.465Z" fill="#FAF6F2"/>
<path d="M225.595 149.226C225.595 148.462 225.691 148.177 225.834 148.653C225.929 149.082 225.929 149.75 225.834 150.084C225.691 150.37 225.595 150.036 225.595 149.226Z" fill="#FAF6F2"/>
<path d="M226.549 149.128C226.74 147.46 228.123 147.078 228.504 148.604C228.838 149.843 228.934 149.701 227.503 150.177C226.502 150.464 226.407 150.368 226.549 149.128Z" fill="#FAF6F2"/>
<path d="M246.673 148.699C246.291 147.316 247.102 146.506 248.627 146.697C249.772 146.84 250.201 148.89 249.248 149.51C248.055 150.273 246.958 149.939 246.673 148.699Z" fill="#FAF6F2"/>
<path d="M229.315 148.319C229.315 147.508 229.553 147.078 230.078 147.078C230.555 147.078 230.745 147.412 230.65 148.127C230.412 149.653 229.315 149.797 229.315 148.319Z" fill="#FAF6F2"/>
<path d="M225.071 146.316C225.071 145.792 225.214 145.649 225.358 146.03C225.5 146.364 225.453 146.793 225.31 146.936C225.166 147.127 225.024 146.84 225.071 146.316Z" fill="#FAF6F2"/>
<path d="M225.977 146.173C225.977 145.457 226.263 145.171 226.979 145.171C227.646 145.171 227.885 145.41 227.789 145.982C227.551 147.222 225.977 147.365 225.977 146.173Z" fill="#FAF6F2"/>
<path d="M228.6 145.744C228.266 144.886 228.266 144.886 229.696 144.504C230.555 144.218 230.745 144.362 230.745 145.077C230.745 146.221 229.029 146.793 228.6 145.744Z" fill="#FAF6F2"/>
<path d="M245.862 145.076C245.528 143.884 246.147 143.264 247.817 143.264C248.627 143.264 248.866 143.55 248.866 144.456C248.866 145.171 248.58 145.648 248.198 145.648C247.817 145.648 247.197 145.792 246.815 145.934C246.386 146.077 246.052 145.792 245.862 145.076Z" fill="#FAF6F2"/>
<path d="M250.011 143.98C249.629 143.027 250.201 142.312 251.298 142.312C251.966 142.312 252.204 142.646 252.204 143.504C252.204 144.362 251.966 144.696 251.25 144.696C250.726 144.696 250.153 144.362 250.011 143.98Z" fill="#FAF6F2"/>
<path d="M225.5 143.312C225.5 142.31 226.597 141.166 227.074 141.691C227.265 141.834 227.408 142.501 227.408 143.121C227.408 143.884 227.122 144.218 226.454 144.218C225.834 144.218 225.5 143.884 225.5 143.312Z" fill="#FAF6F2"/>
<path d="M228.123 142.739C227.741 141.547 228.17 141.022 229.792 140.784C231.271 140.593 231.747 142.167 230.46 143.121C229.22 144.026 228.457 143.884 228.123 142.739Z" fill="#FAF6F2"/>
<path d="M245.385 142.454C245.051 142.169 244.908 140.404 245.194 140.404C245.242 140.404 245.958 140.213 246.816 139.975C248.246 139.546 248.341 139.594 248.294 140.881C248.246 141.835 247.96 142.312 247.245 142.502C245.958 142.836 245.766 142.836 245.385 142.454Z" fill="#FAF6F2"/>
<path d="M243.62 141.356C243.62 141.023 243.764 140.879 243.954 141.023C244.098 141.213 244.098 141.499 243.954 141.69C243.764 141.833 243.62 141.69 243.62 141.356Z" fill="#FAF6F2"/>
<path d="M248.961 140.593C249.104 139.783 250.582 138.59 250.916 138.972C251.059 139.115 251.297 139.687 251.441 140.307C251.775 141.261 251.631 141.356 250.296 141.356C249.152 141.356 248.818 141.165 248.961 140.593Z" fill="#FAF6F2"/>
<path d="M225.977 140.546C225.977 140.308 226.216 139.831 226.454 139.45C226.836 138.878 226.931 138.925 226.931 139.831C226.931 140.404 226.74 140.88 226.454 140.88C226.216 140.88 225.977 140.737 225.977 140.546Z" fill="#FAF6F2"/>
<path d="M227.407 139.497C227.407 138.161 228.409 137.732 229.172 138.734C229.649 139.449 229.649 139.687 229.172 140.021C228.17 140.641 227.407 140.45 227.407 139.497Z" fill="#FAF6F2"/>
<path d="M241.904 138.878C241.045 137.925 241.045 137.877 241.856 138.163C242.333 138.354 242.953 138.497 243.191 138.497C243.43 138.497 243.62 138.831 243.62 139.212C243.62 140.214 242.953 140.119 241.904 138.878Z" fill="#FAF6F2"/>
<path d="M231.652 138.83C229.601 137.256 229.315 133.728 231.223 133.728C232.51 133.728 233.702 135.73 233.511 137.59C233.368 139.307 232.796 139.688 231.652 138.83Z" fill="#FAF6F2"/>
<path d="M244.717 139.116C244.908 138.972 245.195 138.972 245.385 139.116C245.528 139.306 245.385 139.449 245.051 139.449C244.717 139.449 244.574 139.306 244.717 139.116Z" fill="#FAF6F2"/>
<path d="M251.918 137.256C252.061 136.826 252.204 136.397 252.204 136.302C252.204 136.207 252.442 136.111 252.681 136.111C252.967 136.111 253.157 136.541 253.157 137.065C253.157 137.637 252.823 138.019 252.394 138.019C251.87 138.019 251.727 137.78 251.918 137.256Z" fill="#FAF6F2"/>
<path d="M226.931 137.112C226.931 136.016 227.933 134.204 228.504 134.204C229.506 134.204 228.791 137.256 227.741 137.446C227.312 137.541 226.931 137.399 226.931 137.112Z" fill="#FAF6F2"/>
<path d="M237.66 136.588L236.229 136.254L237.517 135.92C238.852 135.539 239.806 135.825 239.806 136.636C239.806 137.112 239.758 137.112 237.66 136.588Z" fill="#FAF6F2"/>
<path d="M235.991 134.299C235.991 132.343 237.088 132.058 238.089 133.774C238.757 134.918 238.804 135.157 238.185 135.157C237.803 135.157 237.183 135.3 236.754 135.443C236.182 135.682 235.991 135.396 235.991 134.299Z" fill="#FAF6F2"/>
<path d="M244.288 134.967C242.142 134.013 240.76 131.486 240.76 128.482C240.76 126.336 240.95 125.812 242.238 124.619C243.049 123.856 243.859 123.237 244.098 123.237C245.146 123.237 249.009 126.908 250.296 129.197L251.775 131.82L250.201 133.489C248.389 135.396 246.387 135.921 244.288 134.967Z" fill="#FAF6F2"/>
<path d="M234.322 133.728C234.179 133.49 234.274 133.251 234.513 133.251C234.798 133.251 235.037 133.49 235.037 133.728C235.037 134.014 234.942 134.206 234.846 134.206C234.703 134.206 234.465 134.014 234.322 133.728Z" fill="#FAF6F2"/>
<path d="M228.075 132.965C228.218 132.536 228.361 132.106 228.361 132.011C228.361 131.916 228.79 131.821 229.315 131.821C230.507 131.821 230.555 132.584 229.363 133.251C228.075 133.918 227.741 133.871 228.075 132.965Z" fill="#FAF6F2"/>
<path d="M231.842 132.392C230.745 132.25 230.412 131.63 231.127 131.201C231.318 131.057 232.176 130.819 233.035 130.628C234.322 130.342 234.56 130.438 234.56 131.248C234.56 132.25 233.559 132.679 231.842 132.392Z" fill="#FAF6F2"/>
<path d="M235.514 130.772C235.514 130.2 235.562 129.866 235.657 129.961C235.705 130.056 236.087 130.533 236.42 131.01C236.992 131.678 236.945 131.82 236.277 131.82C235.8 131.82 235.514 131.439 235.514 130.772Z" fill="#FAF6F2"/>
<path d="M228.838 130.438C228.838 130.152 229.077 129.818 229.315 129.675C229.601 129.532 229.792 129.723 229.792 130.104C229.792 130.533 229.601 130.867 229.315 130.867C229.077 130.867 228.838 130.676 228.838 130.438Z" fill="#FAF6F2"/>
<path d="M230.603 129.72C230.221 128.767 233.606 127.718 234.179 128.624C234.608 129.387 234.179 129.72 232.367 130.102C231.27 130.34 230.794 130.245 230.603 129.72Z" fill="#FAF6F2"/>
<path d="M235.085 128.196C235.085 127.672 235.228 127.528 235.371 127.91C235.514 128.244 235.466 128.673 235.324 128.816C235.18 129.007 235.037 128.72 235.085 128.196Z" fill="#FAF6F2"/>
<path d="M231.032 127.434C231.604 126.384 233.273 124.667 233.702 124.667C234.179 124.667 234.227 126.908 233.75 127.195C233.511 127.29 232.749 127.529 232.033 127.719C230.984 127.958 230.745 127.91 231.032 127.434Z" fill="#FAF6F2"/>
<path d="M234.846 126.336C234.322 124.906 234.561 124.286 235.705 124.095C236.897 123.856 236.897 123.856 236.134 125.335C235.18 127.242 235.228 127.242 234.846 126.336Z" fill="#FAF6F2"/>
<path d="M234.56 123.476C234.56 123.38 235.514 122.713 236.706 122.045C238.136 121.187 239.138 120.901 239.853 121.091C240.711 121.377 240.473 121.568 238.375 122.569C236.039 123.618 234.56 124 234.56 123.476Z" fill="#FAF6F2"/>
<path d="M261.025 81.2278C259.738 79.3678 257.02 76.3637 255.064 74.5517C253.11 72.7398 251.822 71.2617 252.204 71.2617C253.252 71.2617 261.264 73.4548 263.267 74.3131C264.935 75.0282 264.983 75.1242 264.554 76.6023C264.316 77.4606 264.125 79.6064 264.125 81.3704C264.125 83.1823 263.982 84.6131 263.791 84.6131C263.552 84.6131 262.36 83.087 261.025 81.2278Z" fill="#FAF6F2"/>
<path d="M163.987 225.663C162.032 224.662 161.603 224.089 159.123 219.178C155.547 212.216 155.452 210.595 158.837 214.553C160.172 216.126 163.272 219.369 165.704 221.753C169.852 225.758 170.043 226.045 168.66 225.854C167.659 225.711 167.277 225.806 167.516 226.187C168.088 227.046 166.276 226.808 163.987 225.663Z" fill="#FAF6F2"/>
<path fill-rule="evenodd" clip-rule="evenodd" d="M243.901 312.542C243.505 311.602 243.946 310.519 244.886 310.124L245.914 309.688C255.902 305.414 261.636 302.846 265.531 298.77C269.426 294.693 269.892 288.705 270.624 285.061C270.825 284.062 273.089 285.818 274.089 286.019C275.09 286.22 275.737 287.193 275.537 288.193C274.656 292.574 272.286 296.75 268.472 300.714C264.67 304.666 257.308 308.901 246.319 313.527C245.379 313.923 244.297 313.482 243.901 312.542Z" fill="#00160A"/>
<path fill-rule="evenodd" clip-rule="evenodd" d="M289.071 122.279C289.947 121.757 291.08 122.045 291.602 122.921C296.826 131.695 299.624 141.727 299.624 152.162C299.624 183.779 273.994 209.409 242.377 209.409C233.976 209.409 225.827 207.597 218.366 204.145C217.441 203.716 213.944 200.307 217.465 201.693C220.987 203.08 234.612 206.193 242.475 206.193C272.052 206.193 292.976 181.739 292.976 152.162C292.976 142.396 289.071 133.728 288.429 124.81C288.354 123.776 288.195 122.8 289.071 122.279Z" fill="#00160A"/>
<path fill-rule="evenodd" clip-rule="evenodd" d="M106.181 262.044C106.833 261.26 107.998 259.677 108.782 260.329C111.997 263.007 115.427 266.109 119.097 266.708C122.916 267.332 127.446 267.332 132.681 266.697C133.694 266.575 134.614 267.296 134.736 268.309C134.859 269.322 134.137 270.241 133.125 270.364C127.565 271.037 122.692 271.037 118.502 270.354C114.162 269.645 110.126 267.734 106.418 264.645C105.634 263.992 105.528 262.827 106.181 262.044Z" fill="#00160A"/>
<path d="M145.39 197.435C143.006 195.528 137.903 189.9 134.041 184.941C132.038 182.319 129.797 176.978 128.462 171.59C127.842 169.158 127.222 166.964 127.079 166.678C126.888 166.44 126.125 163.054 125.362 159.144C124.218 153.613 124.46 151.83 123.455 145.214C123.029 142.412 122.645 140.184 122.645 140.184L123.884 138.592C124.599 137.638 125.504 136.06 125.839 135.159C127.365 131.052 138.571 118.183 138.905 118.516C139 118.612 138.619 120.853 137.951 123.476C137.331 126.098 136.568 130.056 136.235 132.297C135.757 136.017 135.567 136.446 134.089 137.686C132.229 139.26 128.7 144.314 128.7 145.363C128.7 146.793 130.846 145.84 133.087 143.503L135.376 141.119V143.742C135.376 145.459 135.042 147.032 134.423 148.271C133.23 150.608 133.23 153.088 134.375 154.995C134.947 155.949 135.471 158.237 135.805 160.956C137.283 173.258 140.431 183.94 145.819 194.669C147.154 197.34 148.203 199.533 148.156 199.533C148.061 199.533 146.82 198.579 145.39 197.435Z" fill="#FAF6F2"/>
<path fill-rule="evenodd" clip-rule="evenodd" d="M343.806 226.857L347.239 228.383C347.951 228.711 355.805 232.485 365.239 237.018C380.449 244.326 399.766 253.608 399.883 253.608C400.074 253.608 400.969 251.539 401.171 249.125C401.648 243.928 403.412 236.87 405.462 231.959C406.416 229.766 407.179 227.024 407.179 226.786C407.179 226.676 406.404 226.364 405.135 225.852C403.624 225.243 401.414 224.351 398.977 223.185C386.961 217.415 363.452 205.637 360.543 203.872C357.682 202.204 357.11 202.06 357.11 203.157C357.11 204.588 354.201 211.216 351.96 214.792C350.768 216.747 348.431 220.276 346.763 222.612L343.806 226.857ZM399.073 245.024C400.44 245.817 398.071 246.979 397.499 247.17C394.13 247.457 390.163 246.823 386.913 244.929C385.214 243.724 371.833 236.29 362.957 231.359C358.9 229.105 355.783 227.374 355.155 226.999C353.152 225.808 351.245 224.52 350.911 224.138C349.91 222.851 350.864 222.279 353.676 222.517C355.368 222.66 396.119 243.313 399.073 245.024Z" fill="#FAF6F2"/>
<path d="M309.568 231.148C308.329 230.719 306.993 229.765 306.135 228.669L304.704 226.904L309.759 221.897C317.532 214.267 323.254 205.929 328.404 196.631C330.12 193.532 335.223 181.031 335.843 179.648C336.796 177.646 337.511 176.883 339.562 175.738C341.994 174.308 344.76 173.831 345.952 174.642C348.241 176.167 348.241 180.984 345.952 189.281C343.425 198.388 340.039 204.921 333.029 214.315C331.932 215.746 329.883 218.559 328.404 220.514C324.446 225.76 321.871 228.287 318.39 230.242C314.957 232.149 312.954 232.388 309.568 231.148Z" fill="#FAF6F2"/>
<path d="M327.546 230.049L326.544 229.048C326.544 229.048 343.165 207.932 346.142 200.151C348.415 194.213 349.753 192.529 351.557 192.529C352.566 192.529 353.391 192.76 353.772 193.332C354.44 194.334 355.083 195.573 354.225 199.817C352.794 206.684 350.601 211.214 344.02 220.989C342.494 223.23 340.539 225.71 339.681 226.569C337.678 228.428 333.172 230.336 330.55 230.765C328.881 231.003 328.404 230.907 327.546 230.049Z" fill="#FAF6F2"/>
<path fill-rule="evenodd" clip-rule="evenodd" d="M355.463 207.97C356.424 205.771 357.11 203.852 357.11 203.157C357.11 202.06 357.682 202.204 360.543 203.872C363.452 205.637 386.961 217.415 398.977 223.185C403.46 225.331 407.179 226.547 407.179 226.786C407.179 227.024 354.443 210.303 355.463 207.97Z" fill="#E7EAEE"/>
<path fill-rule="evenodd" clip-rule="evenodd" d="M192.312 210.689C186.255 206.732 177.1 197.433 172.665 190.804C166.323 181.267 162.127 171.064 160.076 160.096C158.598 152.132 158.646 139.878 160.124 132.773C161.65 125.524 163.605 119.993 167.086 112.983C171.139 104.877 175.431 98.9165 181.868 92.479C188.181 86.1664 160.124 112.272 167.086 158.981C172.665 198.123 196.642 213.543 192.312 210.689Z" fill="#E7EAEE"/>
<rect x="214" y="112" width="59" height="73" rx="29.5" fill="#FAF6F2"/>
<path d="M244.408 162.416C243.192 162.416 242.232 162.032 241.528 161.264C240.888 160.432 240.568 159.344 240.568 158C240.568 156.016 240.792 154.16 241.24 152.432C241.752 150.64 242.552 148.848 243.64 147.056C244.728 145.264 246.168 143.376 247.96 141.392C249.304 139.856 250.36 138.512 251.128 137.36C251.96 136.144 252.536 134.992 252.856 133.904C253.24 132.816 253.432 131.696 253.432 130.544C253.432 128.432 252.664 126.768 251.128 125.552C249.592 124.336 247.416 123.728 244.6 123.728C242.04 123.728 239.704 124.08 237.592 124.784C235.544 125.424 233.464 126.352 231.352 127.568C229.944 128.4 228.664 128.784 227.512 128.72C226.424 128.592 225.528 128.176 224.824 127.472C224.12 126.768 223.672 125.904 223.48 124.88C223.288 123.856 223.448 122.8 223.96 121.712C224.472 120.624 225.4 119.632 226.744 118.736C229.368 117.008 232.376 115.696 235.768 114.8C239.16 113.84 242.36 113.36 245.368 113.36C249.4 113.36 252.92 114.032 255.928 115.376C259 116.72 261.368 118.576 263.032 120.944C264.76 123.312 265.624 126.096 265.624 129.296C265.624 131.28 265.336 133.168 264.76 134.96C264.184 136.688 263.256 138.448 261.976 140.24C260.696 141.968 258.936 143.856 256.696 145.904C254.712 147.696 253.112 149.328 251.896 150.8C250.744 152.272 249.88 153.68 249.304 155.024C248.792 156.368 248.44 157.808 248.248 159.344C248.184 160.24 247.8 160.976 247.096 161.552C246.456 162.128 245.56 162.416 244.408 162.416ZM244.216 182.48C242.04 182.48 240.28 181.808 238.936 180.464C237.656 179.12 237.016 177.392 237.016 175.28C237.016 173.232 237.656 171.568 238.936 170.288C240.28 168.944 242.04 168.272 244.216 168.272C246.456 168.272 248.184 168.944 249.4 170.288C250.68 171.568 251.32 173.232 251.32 175.28C251.32 177.392 250.68 179.12 249.4 180.464C248.184 181.808 246.456 182.48 244.216 182.48Z" fill="#00160A"/>
</svg>
